# xmcd
#
# Track frame offsets:
#	150
#	16719
#	28904
#	42373
#	62760
#	74805
#	88559
#	99192
#	115264
#	129352
#	142639
#
# Disc length: 2130 seconds
#
# Revision: 0
# Processed by: cddbd v1.5.2PL0 Copyright (c) Steve Scherf et al.
# Submitted via: audiograbber 1.83.01
#
DISCID=8b08500b
DTITLE=Laurie LeBlanc - Noir et Blanc
DYEAR=2012
DGENRE=Country
TTITLE0=La pêche est finie
TTITLE1=Chatouiller
TTITLE2=Faire la vie
TTITLE3=Feu de rêve au fond-de-la-baie
TTITLE4=Chère, tu m'coûtes cher
TTITLE5=Malade aux iles
TTITLE6=Au Lac-à-l'Eau-Claire
TTITLE7=Assis à la fenêtre
TTITLE8=Devant l'miroir
TTITLE9=V'la l'bon temps
TTITLE10=Ma Gazi
EXTD=
EXTT0=
EXTT1=
EXTT2=
EXTT3=
EXTT4=
EXTT5=
EXTT6=
EXTT7=
EXTT8=
EXTT9=
EXTT10=
PLAYORDER=
